<svg xmlns="http://www.w3.org/2000/svg" viewBox="0 0 200 200" fill="none" stroke="#000" stroke-width="1.3" stroke-linecap="round" stroke-linejoin="round"><style>*{vector-effect:non-scaling-stroke}</style><rect x="18" y="40" width="164" height="120" rx="8"/><path d="M18 60L182 60"/><path d="M18 140L182 140"/><rect x="27" y="46" width="7" height="8" rx="1.5"/><rect x="27" y="146" width="7" height="8" rx="1.5"/><rect x="41" y="46" width="7" height="8" rx="1.5"/><rect x="41" y="146" width="7" height="8" rx="1.5"/><rect x="55" y="46" width="7" height="8" rx="1.5"/><rect x="55" y="146" width="7" height="8" rx="1.5"/><rect x="69" y="46" width="7" height="8" rx="1.5"/><rect x="69" y="146" width="7" height="8" rx="1.5"/><rect x="83" y="46" width="7" height="8" rx="1.5"/><rect x="83" y="146" width="7" height="8" rx="1.5"/><rect x="97" y="46" width="7" height="8" rx="1.5"/><rect x="97" y="146" width="7" height="8" rx="1.5"/><rect x="111" y="46" width="7" height="8" rx="1.5"/><rect x="111" y="146" width="7" height="8" rx="1.5"/><rect x="125" y="46" width="7" height="8" rx="1.5"/><rect x="125" y="146" width="7" height="8" rx="1.5"/><rect x="139" y="46" width="7" height="8" rx="1.5"/><rect x="139" y="146" width="7" height="8" rx="1.5"/><rect x="153" y="46" width="7" height="8" rx="1.5"/><rect x="153" y="146" width="7" height="8" rx="1.5"/><rect x="167" y="46" width="7" height="8" rx="1.5"/><rect x="167" y="146" width="7" height="8" rx="1.5"/><circle cx="100" cy="100" r="30"/><circle cx="100" cy="100" r="20"/><circle cx="100" cy="100" r="11"/><circle cx="100" cy="100" r="2.5" fill="#000" stroke="none"/></svg>
